HIERARCHY
ROOT Pelvis
{
	OFFSET 0.000000 0.000000 0.000000
	CHANNELS 6 Xposition Yposition Zposition Xrotation Yrotation Zrotation
	JOINT LeftUpLeg_virtual
	{
		OFFSET 0.000000 0.000000 0.000000
		CHANNELS 3 Xrotation Yrotation Zrotation
		JOINT LeftUpLeg
		{
			OFFSET 18.735201 -5.666702 -4.541200
			CHANNELS 3 Xrotation Yrotation Zrotation
			JOINT LeftLeg
			{
				OFFSET -0.021200 -31.938179 0.493100
				CHANNELS 3 Xrotation Yrotation Zrotation
				JOINT LeftFoot
				{
					OFFSET 0.021200 -31.938179 -4.336299
					CHANNELS 3 Xrotation Yrotation Zrotation
					JOINT LeftToeBase
					{
						OFFSET 0.943001 -26.722000 15.023500
						CHANNELS 3 Xrotation Yrotation Zrotation
						End Site
						{
							OFFSET 0 0 0
						}
					}
				}
			}
		}
	}
	JOINT RightUpLeg_virtual
	{
		OFFSET 0.000000 0.000000 0.000000
		CHANNELS 3 Xrotation Yrotation Zrotation
		JOINT RightUpLeg
		{
			OFFSET -18.735201 -5.666702 -4.541200
			CHANNELS 3 Xrotation Yrotation Zrotation
			JOINT RightLeg
			{
				OFFSET 0.018946 -31.938133 0.493100
				CHANNELS 3 Xrotation Yrotation Zrotation
				JOINT RightFoot
				{
					OFFSET -0.018946 -31.938126 -4.336299
					CHANNELS 3 Xrotation Yrotation Zrotation
					JOINT RightToeBase
					{
						OFFSET -0.943001 -26.722004 15.023500
						CHANNELS 3 Xrotation Yrotation Zrotation
						End Site
						{
							OFFSET 0 0 0
						}
					}
				}
			}
		}
	}
	JOINT Hips_virtual
	{
		OFFSET 0.000000 0.000000 0.000000
		CHANNELS 3 Xrotation Yrotation Zrotation
		JOINT Hips
		{
			OFFSET -0.000000 -0.000000 -0.000000
			CHANNELS 3 Xrotation Yrotation Zrotation
			JOINT Spine
			{
				OFFSET 0.000000 10.199997 -0.299500
				CHANNELS 3 Xrotation Yrotation Zrotation
				JOINT Spine1
				{
					OFFSET 0.000000 11.900002 -1.516600
					CHANNELS 3 Xrotation Yrotation Zrotation
					JOINT Spine2
					{
						OFFSET 0.000000 13.600006 -2.842500
						CHANNELS 3 Xrotation Yrotation Zrotation
						JOINT Neck_virtual
						{
							OFFSET 0.000000 0.000000 0.000000
							CHANNELS 3 Xrotation Yrotation Zrotation
							JOINT Neck
							{
								OFFSET 0.000000 9.624100 -2.890100
								CHANNELS 3 Xrotation Yrotation Zrotation
								JOINT Head
								{
									OFFSET 0.000000 14.068802 -1.351900
									CHANNELS 3 Xrotation Yrotation Zrotation
									End Site
									{
										OFFSET 0 0 0
									}
								}
							}
						}
						JOINT LeftShoulder_virtual
						{
							OFFSET 0.000000 0.000000 0.000000
							CHANNELS 3 Xrotation Yrotation Zrotation
							JOINT LeftShoulder
							{
								OFFSET 15.263000 10.923401 -0.547700
								CHANNELS 3 Xrotation Yrotation Zrotation
								JOINT LeftArm
								{
									OFFSET 25.438599 -2.830597 -13.032500
									CHANNELS 3 Xrotation Yrotation Zrotation
									JOINT LeftForeArm
									{
										OFFSET 29.960503 0.000000 0.000000
										CHANNELS 3 Xrotation Yrotation Zrotation
										JOINT LeftHand
										{
											OFFSET 27.849251 0.000000 0.000000
											CHANNELS 3 Xrotation Yrotation Zrotation
											End Site
											{
												OFFSET 0 0 0
											}
										}
									}
								}
							}
						}
						JOINT RightShoulder_virtual
						{
							OFFSET 0.000000 0.000000 0.000000
							CHANNELS 3 Xrotation Yrotation Zrotation
							JOINT RightShoulder
							{
								OFFSET -15.263000 10.923401 -0.547700
								CHANNELS 3 Xrotation Yrotation Zrotation
								JOINT RightArm
								{
									OFFSET -25.438599 -2.830597 -13.032500
									CHANNELS 3 Xrotation Yrotation Zrotation
									JOINT RightForeArm
									{
										OFFSET -29.960503 0.000000 0.000000
										CHANNELS 3 Xrotation Yrotation Zrotation
										JOINT RightHand
										{
											OFFSET -27.849251 0.000000 0.000000
											CHANNELS 3 Xrotation Yrotation Zrotation
											End Site
											{
												OFFSET 0 0 0
											}
										}
									}
								}
							}
						}
					}
				}
			}
		}
	}
}
MOTION
Frames: 4
Frame Time: 0.03333333
-1.175071 16.235466 6.906624 0.000000 0.000000 0.000000 -87.565580 -3.321287 2.007193 -31.701736 17.782659 -7.213178 34.672216 -6.822886 -11.346291 -1.064384 7.863301 9.581494 0.000000 0.000000 0.000000 -87.565580 -3.321287 2.007193 -5.406501 -9.968168 -5.357909 -1.203995 -10.591971 4.728612 17.742350 -2.973199 29.770435 0.000000 0.000000 0.000000 -87.565580 -3.321287 2.007193 0.000000 0.000000 0.000000 0.697895 1.251725 -4.081476 -2.712463 0.550123 0.069934 0.000000 0.000000 0.000000 -2.709993 0.572753 0.085568 1.875886 -0.066753 0.080354 0.000000 0.000000 0.000000 -2.709993 0.572753 0.085568 1.279309 -13.498957 -1.883384 20.483963 -1.014537 -70.993464 -179.999978 -42.508509 -179.999991 0.000000 0.000000 0.000000 -2.709993 0.572753 0.085568 0.515810 6.973515 0.064737 15.875308 6.901685 66.846501 179.999991 46.911990 179.999991 0.000000 0.000000 0.000000 
-1.174509 16.233871 6.906960 0.000000 0.000000 0.000000 -87.570176 -3.321414 2.003180 -31.698942 17.779167 -7.207329 34.666704 -6.824735 -11.345555 -1.047855 7.857825 9.560353 0.000000 0.000000 0.000000 -87.570176 -3.321414 2.003180 -5.408275 -9.972513 -5.354289 -1.205121 -10.591419 4.727397 17.745588 -2.980574 29.761911 0.000000 0.000000 0.000000 -87.570176 -3.321414 2.003180 0.000000 0.000000 0.000000 0.707782 1.266647 -4.070730 -2.714814 0.553227 0.066522 0.000000 0.000000 0.000000 -2.712317 0.575769 0.082299 1.877580 -0.068259 0.080087 0.000000 0.000000 0.000000 -2.712317 0.575769 0.082299 1.280317 -13.511005 -1.881051 20.463064 -1.020427 -70.982447 -179.999937 -42.514905 -179.999923 0.000000 0.000000 0.000000 -2.712317 0.575769 0.082299 0.515696 6.970293 0.064802 15.871025 6.874118 66.875270 -179.999964 46.906283 179.999964 0.000000 0.000000 0.000000 
-1.173262 16.231430 6.907997 0.000000 0.000000 0.000000 -87.564842 -3.314296 1.999666 -31.709864 17.781385 -7.205026 34.667598 -6.823753 -11.343530 -1.034087 7.859699 9.559848 0.000000 0.000000 0.000000 -87.564842 -3.314296 1.999666 -5.409663 -9.976967 -5.351539 -1.207019 -10.590185 4.725972 17.748306 -2.987329 29.754370 0.000000 0.000000 0.000000 -87.564842 -3.314296 1.999666 0.000000 0.000000 0.000000 0.705962 1.270342 -4.058785 -2.717587 0.553202 0.064004 0.000000 0.000000 0.000000 -2.715124 0.575667 0.079816 1.879208 -0.069478 0.080534 0.000000 0.000000 0.000000 -2.715124 0.575667 0.079816 1.280970 -13.511730 -1.874327 20.456956 -1.026671 -70.978793 -179.999991 -42.522231 -179.999978 0.000000 0.000000 0.000000 -2.715124 0.575667 0.079816 0.516555 6.974772 0.064836 15.862884 6.852980 66.901901 -179.999978 46.899873 179.999991 0.000000 0.000000 0.000000 
-1.173380 16.229351 6.908592 0.000000 0.000000 0.000000 -87.561550 -3.306555 1.999007 -31.716550 17.783794 -7.206151 34.668036 -6.823296 -11.340985 -1.024998 7.862949 9.562313 0.000000 0.000000 0.000000 -87.561550 -3.306555 1.999007 -5.411132 -9.981527 -5.349058 -1.208641 -10.588288 4.724438 17.750169 -2.993859 29.747219 0.000000 0.000000 0.000000 -87.561550 -3.306555 1.999007 0.000000 0.000000 0.000000 0.699283 1.261163 -4.050835 -2.720158 0.550011 0.062057 0.000000 0.000000 0.000000 -2.717717 0.572448 0.077790 1.880181 -0.070006 0.081771 0.000000 0.000000 0.000000 -2.717717 0.572448 0.077790 1.281618 -13.501143 -1.858550 20.465246 -1.034979 -70.988000 -179.999991 -42.534078 -179.999978 0.000000 0.000000 0.000000 -2.717717 0.572448 0.077790 0.517622 6.987888 0.064818 15.855750 6.841794 66.926073 -179.999964 46.897445 179.999964 0.000000 0.000000 0.000000 
